%TF.GenerationSoftware,KiCad,Pcbnew,10.0.1*%
%TF.CreationDate,2026-05-15T23:52:56-05:00*%
%TF.ProjectId,Numpadv1,4e756d70-6164-4763-912e-6b696361645f,rev?*%
%TF.SameCoordinates,Original*%
%TF.FileFunction,Legend,Bot*%
%TF.FilePolarity,Positive*%
%FSLAX46Y46*%
G04 Gerber Fmt 4.6, Leading zero omitted, Abs format (unit mm)*
G04 Created by KiCad (PCBNEW 10.0.1) date 2026-05-15 23:52:56*
%MOMM*%
%LPD*%
G01*
G04 APERTURE LIST*
%ADD10C,0.200000*%
%ADD11C,0.120000*%
%ADD12C,0.100000*%
G04 APERTURE END LIST*
D10*
X143372538Y-49458469D02*
X143848728Y-49458469D01*
X143848728Y-49458469D02*
X143896347Y-49934659D01*
X143896347Y-49934659D02*
X143848728Y-49887040D01*
X143848728Y-49887040D02*
X143753490Y-49839421D01*
X143753490Y-49839421D02*
X143515395Y-49839421D01*
X143515395Y-49839421D02*
X143420157Y-49887040D01*
X143420157Y-49887040D02*
X143372538Y-49934659D01*
X143372538Y-49934659D02*
X143324919Y-50029897D01*
X143324919Y-50029897D02*
X143324919Y-50267992D01*
X143324919Y-50267992D02*
X143372538Y-50363230D01*
X143372538Y-50363230D02*
X143420157Y-50410850D01*
X143420157Y-50410850D02*
X143515395Y-50458469D01*
X143515395Y-50458469D02*
X143753490Y-50458469D01*
X143753490Y-50458469D02*
X143848728Y-50410850D01*
X143848728Y-50410850D02*
X143896347Y-50363230D01*
X143039204Y-49458469D02*
X142705871Y-50458469D01*
X142705871Y-50458469D02*
X142372538Y-49458469D01*
X143324919Y-52046088D02*
X143420157Y-51998469D01*
X143420157Y-51998469D02*
X143563014Y-51998469D01*
X143563014Y-51998469D02*
X143705871Y-52046088D01*
X143705871Y-52046088D02*
X143801109Y-52141326D01*
X143801109Y-52141326D02*
X143848728Y-52236564D01*
X143848728Y-52236564D02*
X143896347Y-52427040D01*
X143896347Y-52427040D02*
X143896347Y-52569897D01*
X143896347Y-52569897D02*
X143848728Y-52760373D01*
X143848728Y-52760373D02*
X143801109Y-52855611D01*
X143801109Y-52855611D02*
X143705871Y-52950850D01*
X143705871Y-52950850D02*
X143563014Y-52998469D01*
X143563014Y-52998469D02*
X143467776Y-52998469D01*
X143467776Y-52998469D02*
X143324919Y-52950850D01*
X143324919Y-52950850D02*
X143277300Y-52903230D01*
X143277300Y-52903230D02*
X143277300Y-52569897D01*
X143277300Y-52569897D02*
X143467776Y-52569897D01*
X142848728Y-52998469D02*
X142848728Y-51998469D01*
X142848728Y-51998469D02*
X142277300Y-52998469D01*
X142277300Y-52998469D02*
X142277300Y-51998469D01*
X141801109Y-52998469D02*
X141801109Y-51998469D01*
X141801109Y-51998469D02*
X141563014Y-51998469D01*
X141563014Y-51998469D02*
X141420157Y-52046088D01*
X141420157Y-52046088D02*
X141324919Y-52141326D01*
X141324919Y-52141326D02*
X141277300Y-52236564D01*
X141277300Y-52236564D02*
X141229681Y-52427040D01*
X141229681Y-52427040D02*
X141229681Y-52569897D01*
X141229681Y-52569897D02*
X141277300Y-52760373D01*
X141277300Y-52760373D02*
X141324919Y-52855611D01*
X141324919Y-52855611D02*
X141420157Y-52950850D01*
X141420157Y-52950850D02*
X141563014Y-52998469D01*
X141563014Y-52998469D02*
X141801109Y-52998469D01*
X143943966Y-54538469D02*
X143324919Y-54538469D01*
X143324919Y-54538469D02*
X143658252Y-54919421D01*
X143658252Y-54919421D02*
X143515395Y-54919421D01*
X143515395Y-54919421D02*
X143420157Y-54967040D01*
X143420157Y-54967040D02*
X143372538Y-55014659D01*
X143372538Y-55014659D02*
X143324919Y-55109897D01*
X143324919Y-55109897D02*
X143324919Y-55347992D01*
X143324919Y-55347992D02*
X143372538Y-55443230D01*
X143372538Y-55443230D02*
X143420157Y-55490850D01*
X143420157Y-55490850D02*
X143515395Y-55538469D01*
X143515395Y-55538469D02*
X143801109Y-55538469D01*
X143801109Y-55538469D02*
X143896347Y-55490850D01*
X143896347Y-55490850D02*
X143943966Y-55443230D01*
X143039204Y-54538469D02*
X142705871Y-55538469D01*
X142705871Y-55538469D02*
X142372538Y-54538469D01*
X142134442Y-54538469D02*
X141515395Y-54538469D01*
X141515395Y-54538469D02*
X141848728Y-54919421D01*
X141848728Y-54919421D02*
X141705871Y-54919421D01*
X141705871Y-54919421D02*
X141610633Y-54967040D01*
X141610633Y-54967040D02*
X141563014Y-55014659D01*
X141563014Y-55014659D02*
X141515395Y-55109897D01*
X141515395Y-55109897D02*
X141515395Y-55347992D01*
X141515395Y-55347992D02*
X141563014Y-55443230D01*
X141563014Y-55443230D02*
X141610633Y-55490850D01*
X141610633Y-55490850D02*
X141705871Y-55538469D01*
X141705871Y-55538469D02*
X141991585Y-55538469D01*
X141991585Y-55538469D02*
X142086823Y-55490850D01*
X142086823Y-55490850D02*
X142134442Y-55443230D01*
X143896347Y-57173707D02*
X143848728Y-57126088D01*
X143848728Y-57126088D02*
X143753490Y-57078469D01*
X143753490Y-57078469D02*
X143515395Y-57078469D01*
X143515395Y-57078469D02*
X143420157Y-57126088D01*
X143420157Y-57126088D02*
X143372538Y-57173707D01*
X143372538Y-57173707D02*
X143324919Y-57268945D01*
X143324919Y-57268945D02*
X143324919Y-57364183D01*
X143324919Y-57364183D02*
X143372538Y-57507040D01*
X143372538Y-57507040D02*
X143943966Y-58078469D01*
X143943966Y-58078469D02*
X143324919Y-58078469D01*
X142848728Y-58078469D02*
X142658252Y-58078469D01*
X142658252Y-58078469D02*
X142563014Y-58030850D01*
X142563014Y-58030850D02*
X142515395Y-57983230D01*
X142515395Y-57983230D02*
X142420157Y-57840373D01*
X142420157Y-57840373D02*
X142372538Y-57649897D01*
X142372538Y-57649897D02*
X142372538Y-57268945D01*
X142372538Y-57268945D02*
X142420157Y-57173707D01*
X142420157Y-57173707D02*
X142467776Y-57126088D01*
X142467776Y-57126088D02*
X142563014Y-57078469D01*
X142563014Y-57078469D02*
X142753490Y-57078469D01*
X142753490Y-57078469D02*
X142848728Y-57126088D01*
X142848728Y-57126088D02*
X142896347Y-57173707D01*
X142896347Y-57173707D02*
X142943966Y-57268945D01*
X142943966Y-57268945D02*
X142943966Y-57507040D01*
X142943966Y-57507040D02*
X142896347Y-57602278D01*
X142896347Y-57602278D02*
X142848728Y-57649897D01*
X142848728Y-57649897D02*
X142753490Y-57697516D01*
X142753490Y-57697516D02*
X142563014Y-57697516D01*
X142563014Y-57697516D02*
X142467776Y-57649897D01*
X142467776Y-57649897D02*
X142420157Y-57602278D01*
X142420157Y-57602278D02*
X142372538Y-57507040D01*
X143896347Y-59713707D02*
X143848728Y-59666088D01*
X143848728Y-59666088D02*
X143753490Y-59618469D01*
X143753490Y-59618469D02*
X143515395Y-59618469D01*
X143515395Y-59618469D02*
X143420157Y-59666088D01*
X143420157Y-59666088D02*
X143372538Y-59713707D01*
X143372538Y-59713707D02*
X143324919Y-59808945D01*
X143324919Y-59808945D02*
X143324919Y-59904183D01*
X143324919Y-59904183D02*
X143372538Y-60047040D01*
X143372538Y-60047040D02*
X143943966Y-60618469D01*
X143943966Y-60618469D02*
X143324919Y-60618469D01*
X142753490Y-60047040D02*
X142848728Y-59999421D01*
X142848728Y-59999421D02*
X142896347Y-59951802D01*
X142896347Y-59951802D02*
X142943966Y-59856564D01*
X142943966Y-59856564D02*
X142943966Y-59808945D01*
X142943966Y-59808945D02*
X142896347Y-59713707D01*
X142896347Y-59713707D02*
X142848728Y-59666088D01*
X142848728Y-59666088D02*
X142753490Y-59618469D01*
X142753490Y-59618469D02*
X142563014Y-59618469D01*
X142563014Y-59618469D02*
X142467776Y-59666088D01*
X142467776Y-59666088D02*
X142420157Y-59713707D01*
X142420157Y-59713707D02*
X142372538Y-59808945D01*
X142372538Y-59808945D02*
X142372538Y-59856564D01*
X142372538Y-59856564D02*
X142420157Y-59951802D01*
X142420157Y-59951802D02*
X142467776Y-59999421D01*
X142467776Y-59999421D02*
X142563014Y-60047040D01*
X142563014Y-60047040D02*
X142753490Y-60047040D01*
X142753490Y-60047040D02*
X142848728Y-60094659D01*
X142848728Y-60094659D02*
X142896347Y-60142278D01*
X142896347Y-60142278D02*
X142943966Y-60237516D01*
X142943966Y-60237516D02*
X142943966Y-60427992D01*
X142943966Y-60427992D02*
X142896347Y-60523230D01*
X142896347Y-60523230D02*
X142848728Y-60570850D01*
X142848728Y-60570850D02*
X142753490Y-60618469D01*
X142753490Y-60618469D02*
X142563014Y-60618469D01*
X142563014Y-60618469D02*
X142467776Y-60570850D01*
X142467776Y-60570850D02*
X142420157Y-60523230D01*
X142420157Y-60523230D02*
X142372538Y-60427992D01*
X142372538Y-60427992D02*
X142372538Y-60237516D01*
X142372538Y-60237516D02*
X142420157Y-60142278D01*
X142420157Y-60142278D02*
X142467776Y-60094659D01*
X142467776Y-60094659D02*
X142563014Y-60047040D01*
X143896347Y-62253707D02*
X143848728Y-62206088D01*
X143848728Y-62206088D02*
X143753490Y-62158469D01*
X143753490Y-62158469D02*
X143515395Y-62158469D01*
X143515395Y-62158469D02*
X143420157Y-62206088D01*
X143420157Y-62206088D02*
X143372538Y-62253707D01*
X143372538Y-62253707D02*
X143324919Y-62348945D01*
X143324919Y-62348945D02*
X143324919Y-62444183D01*
X143324919Y-62444183D02*
X143372538Y-62587040D01*
X143372538Y-62587040D02*
X143943966Y-63158469D01*
X143943966Y-63158469D02*
X143324919Y-63158469D01*
X142991585Y-62158469D02*
X142324919Y-62158469D01*
X142324919Y-62158469D02*
X142753490Y-63158469D01*
X143324919Y-68238469D02*
X143896347Y-68238469D01*
X143610633Y-68238469D02*
X143610633Y-67238469D01*
X143610633Y-67238469D02*
X143705871Y-67381326D01*
X143705871Y-67381326D02*
X143801109Y-67476564D01*
X143801109Y-67476564D02*
X143896347Y-67524183D01*
X142420157Y-67238469D02*
X142896347Y-67238469D01*
X142896347Y-67238469D02*
X142943966Y-67714659D01*
X142943966Y-67714659D02*
X142896347Y-67667040D01*
X142896347Y-67667040D02*
X142801109Y-67619421D01*
X142801109Y-67619421D02*
X142563014Y-67619421D01*
X142563014Y-67619421D02*
X142467776Y-67667040D01*
X142467776Y-67667040D02*
X142420157Y-67714659D01*
X142420157Y-67714659D02*
X142372538Y-67809897D01*
X142372538Y-67809897D02*
X142372538Y-68047992D01*
X142372538Y-68047992D02*
X142420157Y-68143230D01*
X142420157Y-68143230D02*
X142467776Y-68190850D01*
X142467776Y-68190850D02*
X142563014Y-68238469D01*
X142563014Y-68238469D02*
X142801109Y-68238469D01*
X142801109Y-68238469D02*
X142896347Y-68190850D01*
X142896347Y-68190850D02*
X142943966Y-68143230D01*
X143324919Y-70778469D02*
X143896347Y-70778469D01*
X143610633Y-70778469D02*
X143610633Y-69778469D01*
X143610633Y-69778469D02*
X143705871Y-69921326D01*
X143705871Y-69921326D02*
X143801109Y-70016564D01*
X143801109Y-70016564D02*
X143896347Y-70064183D01*
X142467776Y-70111802D02*
X142467776Y-70778469D01*
X142705871Y-69730850D02*
X142943966Y-70445135D01*
X142943966Y-70445135D02*
X142324919Y-70445135D01*
X143905445Y-64794699D02*
X143857826Y-64747080D01*
X143857826Y-64747080D02*
X143762588Y-64699461D01*
X143762588Y-64699461D02*
X143524493Y-64699461D01*
X143524493Y-64699461D02*
X143429255Y-64747080D01*
X143429255Y-64747080D02*
X143381636Y-64794699D01*
X143381636Y-64794699D02*
X143334017Y-64889937D01*
X143334017Y-64889937D02*
X143334017Y-64985175D01*
X143334017Y-64985175D02*
X143381636Y-65128032D01*
X143381636Y-65128032D02*
X143953064Y-65699461D01*
X143953064Y-65699461D02*
X143334017Y-65699461D01*
X142476874Y-64699461D02*
X142667350Y-64699461D01*
X142667350Y-64699461D02*
X142762588Y-64747080D01*
X142762588Y-64747080D02*
X142810207Y-64794699D01*
X142810207Y-64794699D02*
X142905445Y-64937556D01*
X142905445Y-64937556D02*
X142953064Y-65128032D01*
X142953064Y-65128032D02*
X142953064Y-65508984D01*
X142953064Y-65508984D02*
X142905445Y-65604222D01*
X142905445Y-65604222D02*
X142857826Y-65651842D01*
X142857826Y-65651842D02*
X142762588Y-65699461D01*
X142762588Y-65699461D02*
X142572112Y-65699461D01*
X142572112Y-65699461D02*
X142476874Y-65651842D01*
X142476874Y-65651842D02*
X142429255Y-65604222D01*
X142429255Y-65604222D02*
X142381636Y-65508984D01*
X142381636Y-65508984D02*
X142381636Y-65270889D01*
X142381636Y-65270889D02*
X142429255Y-65175651D01*
X142429255Y-65175651D02*
X142476874Y-65128032D01*
X142476874Y-65128032D02*
X142572112Y-65080413D01*
X142572112Y-65080413D02*
X142762588Y-65080413D01*
X142762588Y-65080413D02*
X142857826Y-65128032D01*
X142857826Y-65128032D02*
X142905445Y-65175651D01*
X142905445Y-65175651D02*
X142953064Y-65270889D01*
X149247976Y-73613469D02*
X149819404Y-73613469D01*
X149533690Y-73613469D02*
X149533690Y-72613469D01*
X149533690Y-72613469D02*
X149628928Y-72756326D01*
X149628928Y-72756326D02*
X149724166Y-72851564D01*
X149724166Y-72851564D02*
X149819404Y-72899183D01*
X148914642Y-72613469D02*
X148295595Y-72613469D01*
X148295595Y-72613469D02*
X148628928Y-72994421D01*
X148628928Y-72994421D02*
X148486071Y-72994421D01*
X148486071Y-72994421D02*
X148390833Y-73042040D01*
X148390833Y-73042040D02*
X148343214Y-73089659D01*
X148343214Y-73089659D02*
X148295595Y-73184897D01*
X148295595Y-73184897D02*
X148295595Y-73422992D01*
X148295595Y-73422992D02*
X148343214Y-73518230D01*
X148343214Y-73518230D02*
X148390833Y-73565850D01*
X148390833Y-73565850D02*
X148486071Y-73613469D01*
X148486071Y-73613469D02*
X148771785Y-73613469D01*
X148771785Y-73613469D02*
X148867023Y-73565850D01*
X148867023Y-73565850D02*
X148914642Y-73518230D01*
X151747976Y-73613469D02*
X152319404Y-73613469D01*
X152033690Y-73613469D02*
X152033690Y-72613469D01*
X152033690Y-72613469D02*
X152128928Y-72756326D01*
X152128928Y-72756326D02*
X152224166Y-72851564D01*
X152224166Y-72851564D02*
X152319404Y-72899183D01*
X151367023Y-72708707D02*
X151319404Y-72661088D01*
X151319404Y-72661088D02*
X151224166Y-72613469D01*
X151224166Y-72613469D02*
X150986071Y-72613469D01*
X150986071Y-72613469D02*
X150890833Y-72661088D01*
X150890833Y-72661088D02*
X150843214Y-72708707D01*
X150843214Y-72708707D02*
X150795595Y-72803945D01*
X150795595Y-72803945D02*
X150795595Y-72899183D01*
X150795595Y-72899183D02*
X150843214Y-73042040D01*
X150843214Y-73042040D02*
X151414642Y-73613469D01*
X151414642Y-73613469D02*
X150795595Y-73613469D01*
X154287976Y-73613469D02*
X154859404Y-73613469D01*
X154573690Y-73613469D02*
X154573690Y-72613469D01*
X154573690Y-72613469D02*
X154668928Y-72756326D01*
X154668928Y-72756326D02*
X154764166Y-72851564D01*
X154764166Y-72851564D02*
X154859404Y-72899183D01*
X153335595Y-73613469D02*
X153907023Y-73613469D01*
X153621309Y-73613469D02*
X153621309Y-72613469D01*
X153621309Y-72613469D02*
X153716547Y-72756326D01*
X153716547Y-72756326D02*
X153811785Y-72851564D01*
X153811785Y-72851564D02*
X153907023Y-72899183D01*
X156827976Y-73613469D02*
X157399404Y-73613469D01*
X157113690Y-73613469D02*
X157113690Y-72613469D01*
X157113690Y-72613469D02*
X157208928Y-72756326D01*
X157208928Y-72756326D02*
X157304166Y-72851564D01*
X157304166Y-72851564D02*
X157399404Y-72899183D01*
X156208928Y-72613469D02*
X156113690Y-72613469D01*
X156113690Y-72613469D02*
X156018452Y-72661088D01*
X156018452Y-72661088D02*
X155970833Y-72708707D01*
X155970833Y-72708707D02*
X155923214Y-72803945D01*
X155923214Y-72803945D02*
X155875595Y-72994421D01*
X155875595Y-72994421D02*
X155875595Y-73232516D01*
X155875595Y-73232516D02*
X155923214Y-73422992D01*
X155923214Y-73422992D02*
X155970833Y-73518230D01*
X155970833Y-73518230D02*
X156018452Y-73565850D01*
X156018452Y-73565850D02*
X156113690Y-73613469D01*
X156113690Y-73613469D02*
X156208928Y-73613469D01*
X156208928Y-73613469D02*
X156304166Y-73565850D01*
X156304166Y-73565850D02*
X156351785Y-73518230D01*
X156351785Y-73518230D02*
X156399404Y-73422992D01*
X156399404Y-73422992D02*
X156447023Y-73232516D01*
X156447023Y-73232516D02*
X156447023Y-72994421D01*
X156447023Y-72994421D02*
X156399404Y-72803945D01*
X156399404Y-72803945D02*
X156351785Y-72708707D01*
X156351785Y-72708707D02*
X156304166Y-72661088D01*
X156304166Y-72661088D02*
X156208928Y-72613469D01*
X159367975Y-73613469D02*
X159177499Y-73613469D01*
X159177499Y-73613469D02*
X159082261Y-73565850D01*
X159082261Y-73565850D02*
X159034642Y-73518230D01*
X159034642Y-73518230D02*
X158939404Y-73375373D01*
X158939404Y-73375373D02*
X158891785Y-73184897D01*
X158891785Y-73184897D02*
X158891785Y-72803945D01*
X158891785Y-72803945D02*
X158939404Y-72708707D01*
X158939404Y-72708707D02*
X158987023Y-72661088D01*
X158987023Y-72661088D02*
X159082261Y-72613469D01*
X159082261Y-72613469D02*
X159272737Y-72613469D01*
X159272737Y-72613469D02*
X159367975Y-72661088D01*
X159367975Y-72661088D02*
X159415594Y-72708707D01*
X159415594Y-72708707D02*
X159463213Y-72803945D01*
X159463213Y-72803945D02*
X159463213Y-73042040D01*
X159463213Y-73042040D02*
X159415594Y-73137278D01*
X159415594Y-73137278D02*
X159367975Y-73184897D01*
X159367975Y-73184897D02*
X159272737Y-73232516D01*
X159272737Y-73232516D02*
X159082261Y-73232516D01*
X159082261Y-73232516D02*
X158987023Y-73184897D01*
X158987023Y-73184897D02*
X158939404Y-73137278D01*
X158939404Y-73137278D02*
X158891785Y-73042040D01*
X164622887Y-49458469D02*
X164527649Y-49458469D01*
X164527649Y-49458469D02*
X164432411Y-49506088D01*
X164432411Y-49506088D02*
X164384792Y-49553707D01*
X164384792Y-49553707D02*
X164337173Y-49648945D01*
X164337173Y-49648945D02*
X164289554Y-49839421D01*
X164289554Y-49839421D02*
X164289554Y-50077516D01*
X164289554Y-50077516D02*
X164337173Y-50267992D01*
X164337173Y-50267992D02*
X164384792Y-50363230D01*
X164384792Y-50363230D02*
X164432411Y-50410850D01*
X164432411Y-50410850D02*
X164527649Y-50458469D01*
X164527649Y-50458469D02*
X164622887Y-50458469D01*
X164622887Y-50458469D02*
X164718125Y-50410850D01*
X164718125Y-50410850D02*
X164765744Y-50363230D01*
X164765744Y-50363230D02*
X164813363Y-50267992D01*
X164813363Y-50267992D02*
X164860982Y-50077516D01*
X164860982Y-50077516D02*
X164860982Y-49839421D01*
X164860982Y-49839421D02*
X164813363Y-49648945D01*
X164813363Y-49648945D02*
X164765744Y-49553707D01*
X164765744Y-49553707D02*
X164718125Y-49506088D01*
X164718125Y-49506088D02*
X164622887Y-49458469D01*
X164289554Y-52998469D02*
X164860982Y-52998469D01*
X164575268Y-52998469D02*
X164575268Y-51998469D01*
X164575268Y-51998469D02*
X164670506Y-52141326D01*
X164670506Y-52141326D02*
X164765744Y-52236564D01*
X164765744Y-52236564D02*
X164860982Y-52284183D01*
X164860982Y-54633707D02*
X164813363Y-54586088D01*
X164813363Y-54586088D02*
X164718125Y-54538469D01*
X164718125Y-54538469D02*
X164480030Y-54538469D01*
X164480030Y-54538469D02*
X164384792Y-54586088D01*
X164384792Y-54586088D02*
X164337173Y-54633707D01*
X164337173Y-54633707D02*
X164289554Y-54728945D01*
X164289554Y-54728945D02*
X164289554Y-54824183D01*
X164289554Y-54824183D02*
X164337173Y-54967040D01*
X164337173Y-54967040D02*
X164908601Y-55538469D01*
X164908601Y-55538469D02*
X164289554Y-55538469D01*
X164908601Y-57078469D02*
X164289554Y-57078469D01*
X164289554Y-57078469D02*
X164622887Y-57459421D01*
X164622887Y-57459421D02*
X164480030Y-57459421D01*
X164480030Y-57459421D02*
X164384792Y-57507040D01*
X164384792Y-57507040D02*
X164337173Y-57554659D01*
X164337173Y-57554659D02*
X164289554Y-57649897D01*
X164289554Y-57649897D02*
X164289554Y-57887992D01*
X164289554Y-57887992D02*
X164337173Y-57983230D01*
X164337173Y-57983230D02*
X164384792Y-58030850D01*
X164384792Y-58030850D02*
X164480030Y-58078469D01*
X164480030Y-58078469D02*
X164765744Y-58078469D01*
X164765744Y-58078469D02*
X164860982Y-58030850D01*
X164860982Y-58030850D02*
X164908601Y-57983230D01*
X164384792Y-59951802D02*
X164384792Y-60618469D01*
X164622887Y-59570850D02*
X164860982Y-60285135D01*
X164860982Y-60285135D02*
X164241935Y-60285135D01*
X164337173Y-62158469D02*
X164813363Y-62158469D01*
X164813363Y-62158469D02*
X164860982Y-62634659D01*
X164860982Y-62634659D02*
X164813363Y-62587040D01*
X164813363Y-62587040D02*
X164718125Y-62539421D01*
X164718125Y-62539421D02*
X164480030Y-62539421D01*
X164480030Y-62539421D02*
X164384792Y-62587040D01*
X164384792Y-62587040D02*
X164337173Y-62634659D01*
X164337173Y-62634659D02*
X164289554Y-62729897D01*
X164289554Y-62729897D02*
X164289554Y-62967992D01*
X164289554Y-62967992D02*
X164337173Y-63063230D01*
X164337173Y-63063230D02*
X164384792Y-63110850D01*
X164384792Y-63110850D02*
X164480030Y-63158469D01*
X164480030Y-63158469D02*
X164718125Y-63158469D01*
X164718125Y-63158469D02*
X164813363Y-63110850D01*
X164813363Y-63110850D02*
X164860982Y-63063230D01*
X164384792Y-64698469D02*
X164575268Y-64698469D01*
X164575268Y-64698469D02*
X164670506Y-64746088D01*
X164670506Y-64746088D02*
X164718125Y-64793707D01*
X164718125Y-64793707D02*
X164813363Y-64936564D01*
X164813363Y-64936564D02*
X164860982Y-65127040D01*
X164860982Y-65127040D02*
X164860982Y-65507992D01*
X164860982Y-65507992D02*
X164813363Y-65603230D01*
X164813363Y-65603230D02*
X164765744Y-65650850D01*
X164765744Y-65650850D02*
X164670506Y-65698469D01*
X164670506Y-65698469D02*
X164480030Y-65698469D01*
X164480030Y-65698469D02*
X164384792Y-65650850D01*
X164384792Y-65650850D02*
X164337173Y-65603230D01*
X164337173Y-65603230D02*
X164289554Y-65507992D01*
X164289554Y-65507992D02*
X164289554Y-65269897D01*
X164289554Y-65269897D02*
X164337173Y-65174659D01*
X164337173Y-65174659D02*
X164384792Y-65127040D01*
X164384792Y-65127040D02*
X164480030Y-65079421D01*
X164480030Y-65079421D02*
X164670506Y-65079421D01*
X164670506Y-65079421D02*
X164765744Y-65127040D01*
X164765744Y-65127040D02*
X164813363Y-65174659D01*
X164813363Y-65174659D02*
X164860982Y-65269897D01*
X164908601Y-67238469D02*
X164241935Y-67238469D01*
X164241935Y-67238469D02*
X164670506Y-68238469D01*
X164670506Y-70207040D02*
X164765744Y-70159421D01*
X164765744Y-70159421D02*
X164813363Y-70111802D01*
X164813363Y-70111802D02*
X164860982Y-70016564D01*
X164860982Y-70016564D02*
X164860982Y-69968945D01*
X164860982Y-69968945D02*
X164813363Y-69873707D01*
X164813363Y-69873707D02*
X164765744Y-69826088D01*
X164765744Y-69826088D02*
X164670506Y-69778469D01*
X164670506Y-69778469D02*
X164480030Y-69778469D01*
X164480030Y-69778469D02*
X164384792Y-69826088D01*
X164384792Y-69826088D02*
X164337173Y-69873707D01*
X164337173Y-69873707D02*
X164289554Y-69968945D01*
X164289554Y-69968945D02*
X164289554Y-70016564D01*
X164289554Y-70016564D02*
X164337173Y-70111802D01*
X164337173Y-70111802D02*
X164384792Y-70159421D01*
X164384792Y-70159421D02*
X164480030Y-70207040D01*
X164480030Y-70207040D02*
X164670506Y-70207040D01*
X164670506Y-70207040D02*
X164765744Y-70254659D01*
X164765744Y-70254659D02*
X164813363Y-70302278D01*
X164813363Y-70302278D02*
X164860982Y-70397516D01*
X164860982Y-70397516D02*
X164860982Y-70587992D01*
X164860982Y-70587992D02*
X164813363Y-70683230D01*
X164813363Y-70683230D02*
X164765744Y-70730850D01*
X164765744Y-70730850D02*
X164670506Y-70778469D01*
X164670506Y-70778469D02*
X164480030Y-70778469D01*
X164480030Y-70778469D02*
X164384792Y-70730850D01*
X164384792Y-70730850D02*
X164337173Y-70683230D01*
X164337173Y-70683230D02*
X164289554Y-70587992D01*
X164289554Y-70587992D02*
X164289554Y-70397516D01*
X164289554Y-70397516D02*
X164337173Y-70302278D01*
X164337173Y-70302278D02*
X164384792Y-70254659D01*
X164384792Y-70254659D02*
X164480030Y-70207040D01*
%TO.C,S12*%
D11*
X107660000Y-88985000D02*
X112760000Y-88985000D01*
X111560000Y-93185000D02*
X116660000Y-93185000D01*
X105660000Y-90985000D02*
G75*
G02*
X107660000Y-88985000I1999999J1D01*
G01*
X109560000Y-95185000D02*
G75*
G02*
X111560000Y-93185000I1999999J1D01*
G01*
%TO.C,S1*%
X69560000Y-50885000D02*
X74660000Y-50885000D01*
X73460000Y-55085000D02*
X78560000Y-55085000D01*
X67560000Y-52885000D02*
G75*
G02*
X69560000Y-50885000I1999999J1D01*
G01*
X71460000Y-57085000D02*
G75*
G02*
X73460000Y-55085000I1999999J1D01*
G01*
%TO.C,S7*%
X88610000Y-69935000D02*
X93710000Y-69935000D01*
X92510000Y-74135000D02*
X97610000Y-74135000D01*
X86610000Y-71935000D02*
G75*
G02*
X88610000Y-69935000I1999999J1D01*
G01*
X90510000Y-76135000D02*
G75*
G02*
X92510000Y-74135000I1999999J1D01*
G01*
%TO.C,S3*%
X69560000Y-88985000D02*
X74660000Y-88985000D01*
X73460000Y-93185000D02*
X78560000Y-93185000D01*
X67560000Y-90985000D02*
G75*
G02*
X69560000Y-88985000I1999999J1D01*
G01*
X71460000Y-95185000D02*
G75*
G02*
X73460000Y-93185000I1999999J1D01*
G01*
%TO.C,S15*%
X126710000Y-50885000D02*
X131810000Y-50885000D01*
X130610000Y-55085000D02*
X135710000Y-55085000D01*
X124710000Y-52885000D02*
G75*
G02*
X126710000Y-50885000I1999999J1D01*
G01*
X128610000Y-57085000D02*
G75*
G02*
X130610000Y-55085000I1999999J1D01*
G01*
%TO.C,S9*%
X88610000Y-108035000D02*
X93710000Y-108035000D01*
X92510000Y-112235000D02*
X97610000Y-112235000D01*
X86610000Y-110035000D02*
G75*
G02*
X88610000Y-108035000I1999999J1D01*
G01*
X90510000Y-114235000D02*
G75*
G02*
X92510000Y-112235000I1999999J1D01*
G01*
%TO.C,S10*%
X107660000Y-50885000D02*
X112760000Y-50885000D01*
X111560000Y-55085000D02*
X116660000Y-55085000D01*
X105660000Y-52885000D02*
G75*
G02*
X107660000Y-50885000I1999999J1D01*
G01*
X109560000Y-57085000D02*
G75*
G02*
X111560000Y-55085000I1999999J1D01*
G01*
%TO.C,S13*%
X107660000Y-108035000D02*
X112760000Y-108035000D01*
X111560000Y-112235000D02*
X116660000Y-112235000D01*
X105660000Y-110035000D02*
G75*
G02*
X107660000Y-108035000I1999999J1D01*
G01*
X109560000Y-114235000D02*
G75*
G02*
X111560000Y-112235000I1999999J1D01*
G01*
%TO.C,S8*%
X88610000Y-88985000D02*
X93710000Y-88985000D01*
X92510000Y-93185000D02*
X97610000Y-93185000D01*
X86610000Y-90985000D02*
G75*
G02*
X88610000Y-88985000I1999999J1D01*
G01*
X90510000Y-95185000D02*
G75*
G02*
X92510000Y-93185000I1999999J1D01*
G01*
%TO.C,S5*%
X79085000Y-127085000D02*
X84185000Y-127085000D01*
X82985000Y-131285000D02*
X88085000Y-131285000D01*
X77085000Y-129085000D02*
G75*
G02*
X79085000Y-127085000I1999999J1D01*
G01*
X80985000Y-133285000D02*
G75*
G02*
X82985000Y-131285000I1999999J1D01*
G01*
%TO.C,S17*%
X126710000Y-117560000D02*
X131810000Y-117560000D01*
X130610000Y-121760000D02*
X135710000Y-121760000D01*
X124710000Y-119560000D02*
G75*
G02*
X126710000Y-117560000I1999999J1D01*
G01*
X128610000Y-123760000D02*
G75*
G02*
X130610000Y-121760000I1999999J1D01*
G01*
%TO.C,S11*%
X107660000Y-69935000D02*
X112760000Y-69935000D01*
X111560000Y-74135000D02*
X116660000Y-74135000D01*
X105660000Y-71935000D02*
G75*
G02*
X107660000Y-69935000I1999999J1D01*
G01*
X109560000Y-76135000D02*
G75*
G02*
X111560000Y-74135000I1999999J1D01*
G01*
%TO.C,S6*%
X88610000Y-50885000D02*
X93710000Y-50885000D01*
X92510000Y-55085000D02*
X97610000Y-55085000D01*
X86610000Y-52885000D02*
G75*
G02*
X88610000Y-50885000I1999999J1D01*
G01*
X90510000Y-57085000D02*
G75*
G02*
X92510000Y-55085000I1999999J1D01*
G01*
%TO.C,S14*%
X107660000Y-127085000D02*
X112760000Y-127085000D01*
X111560000Y-131285000D02*
X116660000Y-131285000D01*
X105660000Y-129085000D02*
G75*
G02*
X107660000Y-127085000I1999999J1D01*
G01*
X109560000Y-133285000D02*
G75*
G02*
X111560000Y-131285000I1999999J1D01*
G01*
%TO.C,S2*%
X69560000Y-69935000D02*
X74660000Y-69935000D01*
X73460000Y-74135000D02*
X78560000Y-74135000D01*
X67560000Y-71935000D02*
G75*
G02*
X69560000Y-69935000I1999999J1D01*
G01*
X71460000Y-76135000D02*
G75*
G02*
X73460000Y-74135000I1999999J1D01*
G01*
%TO.C,S16*%
X126710000Y-79460000D02*
X131810000Y-79460000D01*
X130610000Y-83660000D02*
X135710000Y-83660000D01*
X124710000Y-81460000D02*
G75*
G02*
X126710000Y-79460000I1999999J1D01*
G01*
X128610000Y-85660000D02*
G75*
G02*
X130610000Y-83660000I1999999J1D01*
G01*
%TO.C,S4*%
X69560000Y-108035000D02*
X74660000Y-108035000D01*
X73460000Y-112235000D02*
X78560000Y-112235000D01*
X67560000Y-110035000D02*
G75*
G02*
X69560000Y-108035000I1999999J1D01*
G01*
X71460000Y-114235000D02*
G75*
G02*
X73460000Y-112235000I1999999J1D01*
G01*
%TO.C,D1*%
D12*
X82785000Y-56582500D02*
X83185000Y-57182500D01*
X83185000Y-56582500D02*
X83185000Y-56082500D01*
X83185000Y-57182500D02*
X83585000Y-56582500D01*
X83185000Y-57582500D02*
X83185000Y-57182500D01*
X83585000Y-56582500D02*
X82785000Y-56582500D01*
X83735000Y-57182500D02*
X82635000Y-57182500D01*
%TO.C,D3*%
X82785000Y-94682500D02*
X83185000Y-95282500D01*
X83185000Y-94682500D02*
X83185000Y-94182500D01*
X83185000Y-95282500D02*
X83585000Y-94682500D01*
X83185000Y-95682500D02*
X83185000Y-95282500D01*
X83585000Y-94682500D02*
X82785000Y-94682500D01*
X83735000Y-95282500D02*
X82635000Y-95282500D01*
%TO.C,D11*%
X120885000Y-67060000D02*
X121285000Y-67660000D01*
X121285000Y-67060000D02*
X121285000Y-66560000D01*
X121285000Y-67660000D02*
X121685000Y-67060000D01*
X121285000Y-68060000D02*
X121285000Y-67660000D01*
X121685000Y-67060000D02*
X120885000Y-67060000D01*
X121835000Y-67660000D02*
X120735000Y-67660000D01*
%TO.C,D15*%
X139935000Y-56582500D02*
X140335000Y-57182500D01*
X140335000Y-56582500D02*
X140335000Y-56082500D01*
X140335000Y-57182500D02*
X140735000Y-56582500D01*
X140335000Y-57582500D02*
X140335000Y-57182500D01*
X140735000Y-56582500D02*
X139935000Y-56582500D01*
X140885000Y-57182500D02*
X139785000Y-57182500D01*
%TO.C,D5*%
X101835000Y-132782500D02*
X102235000Y-133382500D01*
X102235000Y-132782500D02*
X102235000Y-132282500D01*
X102235000Y-133382500D02*
X102635000Y-132782500D01*
X102235000Y-133782500D02*
X102235000Y-133382500D01*
X102635000Y-132782500D02*
X101835000Y-132782500D01*
X102785000Y-133382500D02*
X101685000Y-133382500D01*
%TO.C,D2*%
X82785000Y-75632500D02*
X83185000Y-76232500D01*
X83185000Y-75632500D02*
X83185000Y-75132500D01*
X83185000Y-76232500D02*
X83585000Y-75632500D01*
X83185000Y-76632500D02*
X83185000Y-76232500D01*
X83585000Y-75632500D02*
X82785000Y-75632500D01*
X83735000Y-76232500D02*
X82635000Y-76232500D01*
%TO.C,D9*%
X101835000Y-113732500D02*
X102235000Y-114332500D01*
X102235000Y-113732500D02*
X102235000Y-113232500D01*
X102235000Y-114332500D02*
X102635000Y-113732500D01*
X102235000Y-114732500D02*
X102235000Y-114332500D01*
X102635000Y-113732500D02*
X101835000Y-113732500D01*
X102785000Y-114332500D02*
X101685000Y-114332500D01*
%TO.C,D12*%
X120885000Y-90872500D02*
X121285000Y-91472500D01*
X121285000Y-90872500D02*
X121285000Y-90372500D01*
X121285000Y-91472500D02*
X121685000Y-90872500D01*
X121285000Y-91872500D02*
X121285000Y-91472500D01*
X121685000Y-90872500D02*
X120885000Y-90872500D01*
X121835000Y-91472500D02*
X120735000Y-91472500D01*
%TO.C,D14*%
X120885000Y-128972500D02*
X121285000Y-129572500D01*
X121285000Y-128972500D02*
X121285000Y-128472500D01*
X121285000Y-129572500D02*
X121685000Y-128972500D01*
X121285000Y-129972500D02*
X121285000Y-129572500D01*
X121685000Y-128972500D02*
X120885000Y-128972500D01*
X121835000Y-129572500D02*
X120735000Y-129572500D01*
%TO.C,D10*%
X120885000Y-56582500D02*
X121285000Y-57182500D01*
X121285000Y-56582500D02*
X121285000Y-56082500D01*
X121285000Y-57182500D02*
X121685000Y-56582500D01*
X121285000Y-57582500D02*
X121285000Y-57182500D01*
X121685000Y-56582500D02*
X120885000Y-56582500D01*
X121835000Y-57182500D02*
X120735000Y-57182500D01*
%TO.C,D13*%
X120885000Y-105160000D02*
X121285000Y-105760000D01*
X121285000Y-105160000D02*
X121285000Y-104660000D01*
X121285000Y-105760000D02*
X121685000Y-105160000D01*
X121285000Y-106160000D02*
X121285000Y-105760000D01*
X121685000Y-105160000D02*
X120885000Y-105160000D01*
X121835000Y-105760000D02*
X120735000Y-105760000D01*
%TO.C,D6*%
X101835000Y-56582500D02*
X102235000Y-57182500D01*
X102235000Y-56582500D02*
X102235000Y-56082500D01*
X102235000Y-57182500D02*
X102635000Y-56582500D01*
X102235000Y-57582500D02*
X102235000Y-57182500D01*
X102635000Y-56582500D02*
X101835000Y-56582500D01*
X102785000Y-57182500D02*
X101685000Y-57182500D01*
%TO.C,D16*%
X139935000Y-85157500D02*
X140335000Y-85757500D01*
X140335000Y-85157500D02*
X140335000Y-84657500D01*
X140335000Y-85757500D02*
X140735000Y-85157500D01*
X140335000Y-86157500D02*
X140335000Y-85757500D01*
X140735000Y-85157500D02*
X139935000Y-85157500D01*
X140885000Y-85757500D02*
X139785000Y-85757500D01*
%TO.C,D8*%
X101835000Y-94682500D02*
X102235000Y-95282500D01*
X102235000Y-94682500D02*
X102235000Y-94182500D01*
X102235000Y-95282500D02*
X102635000Y-94682500D01*
X102235000Y-95682500D02*
X102235000Y-95282500D01*
X102635000Y-94682500D02*
X101835000Y-94682500D01*
X102785000Y-95282500D02*
X101685000Y-95282500D01*
%TO.C,D7*%
X101835000Y-75632500D02*
X102235000Y-76232500D01*
X102235000Y-75632500D02*
X102235000Y-75132500D01*
X102235000Y-76232500D02*
X102635000Y-75632500D01*
X102235000Y-76632500D02*
X102235000Y-76232500D01*
X102635000Y-75632500D02*
X101835000Y-75632500D01*
X102785000Y-76232500D02*
X101685000Y-76232500D01*
%TO.C,D17*%
X139935000Y-123257500D02*
X140335000Y-123857500D01*
X140335000Y-123257500D02*
X140335000Y-122757500D01*
X140335000Y-123857500D02*
X140735000Y-123257500D01*
X140335000Y-124257500D02*
X140335000Y-123857500D01*
X140735000Y-123257500D02*
X139935000Y-123257500D01*
X140885000Y-123857500D02*
X139785000Y-123857500D01*
%TO.C,D4*%
X82785000Y-113732500D02*
X83185000Y-114332500D01*
X83185000Y-113732500D02*
X83185000Y-113232500D01*
X83185000Y-114332500D02*
X83585000Y-113732500D01*
X83185000Y-114732500D02*
X83185000Y-114332500D01*
X83585000Y-113732500D02*
X82785000Y-113732500D01*
X83735000Y-114332500D02*
X82635000Y-114332500D01*
%TD*%
M02*
