M48
; DRILL file KiCad 10.0.1 date 2026-05-15T23:53:32
; FORMAT={-:-/ absolute / metric / decimal}
; #@! TF.CreationDate,2026-05-15T23:53:32-05:00
; #@! TF.GenerationSoftware,Kicad,Pcbnew,10.0.1
; #@! TF.FileFunction,Plated,1,2,PTH
FMAT,2
METRIC
; #@! TA.AperFunction,Plated,PTH,ViaDrill
T1C0.300
; #@! TA.AperFunction,Plated,PTH,ComponentDrill
T2C0.800
; #@! TA.AperFunction,Plated,PTH,ComponentDrill
T3C1.000
; #@! TA.AperFunction,Plated,PTH,ComponentDrill
T4C1.500
%
G90
G05
T1
X142.716Y-64.929
X152.241Y-62.547
T2
X83.185Y-53.023
X83.185Y-60.642
X83.185Y-72.072
X83.185Y-79.692
X83.185Y-91.123
X83.185Y-98.742
X83.185Y-110.172
X83.185Y-117.792
X102.235Y-53.023
X102.235Y-60.642
X102.235Y-72.072
X102.235Y-79.692
X102.235Y-91.123
X102.235Y-98.742
X102.235Y-110.172
X102.235Y-117.792
X102.235Y-129.222
X102.235Y-136.843
X121.285Y-53.023
X121.285Y-60.642
X121.285Y-63.5
X121.285Y-71.12
X121.285Y-87.312
X121.285Y-94.932
X121.285Y-101.6
X121.285Y-109.22
X121.285Y-125.412
X121.285Y-133.032
X140.335Y-53.023
X140.335Y-60.642
X140.335Y-81.597
X140.335Y-89.218
X140.335Y-119.697
X140.335Y-127.317
T3
X146.477Y-50.006
X146.477Y-52.546
X146.477Y-55.086
X146.477Y-57.626
X146.477Y-60.166
X146.477Y-62.706
X146.477Y-65.246
X146.477Y-67.786
X146.477Y-70.326
X146.479Y-82.516
X146.479Y-87.516
X149.017Y-70.326
X149.585Y-100.647
X151.558Y-70.326
X152.125Y-100.647
X154.097Y-70.326
X154.665Y-100.647
X156.637Y-70.326
X157.205Y-100.647
X159.177Y-70.326
X160.979Y-82.516
X160.979Y-85.016
X160.979Y-87.516
X161.718Y-50.006
X161.718Y-52.546
X161.718Y-55.086
X161.718Y-57.626
X161.718Y-60.166
X161.718Y-62.706
X161.718Y-65.246
X161.718Y-67.786
X161.718Y-70.326
T4
X154.129Y-79.416G85X152.829Y-79.416
G05
X154.129Y-90.616G85X152.829Y-90.616
G05
M30
