M48
; DRILL file KiCad 10.0.1 date 2026-05-15T23:53:32
; FORMAT={-:-/ absolute / metric / decimal}
; #@! TF.CreationDate,2026-05-15T23:53:32-05:00
; #@! TF.GenerationSoftware,Kicad,Pcbnew,10.0.1
; #@! TF.FileFunction,NonPlated,1,2,NPTH
FMAT,2
METRIC
; #@! TA.AperFunction,NonPlated,NPTH,ComponentDrill
T1C1.750
; #@! TA.AperFunction,NonPlated,NPTH,ComponentDrill
T2C2.200
; #@! TA.AperFunction,NonPlated,NPTH,ComponentDrill
T3C3.048
; #@! TA.AperFunction,NonPlated,NPTH,ComponentDrill
T4C3.050
; #@! TA.AperFunction,NonPlated,NPTH,ComponentDrill
T5C3.988
; #@! TA.AperFunction,NonPlated,NPTH,ComponentDrill
T6C4.000
%
G90
G05
T1
X68.58Y-57.785
X68.58Y-76.835
X68.58Y-95.885
X68.58Y-114.935
X78.105Y-133.985
X78.74Y-57.785
X78.74Y-76.835
X78.74Y-95.885
X78.74Y-114.935
X87.63Y-57.785
X87.63Y-76.835
X87.63Y-95.885
X87.63Y-114.935
X88.265Y-133.985
X97.79Y-57.785
X97.79Y-76.835
X97.79Y-95.885
X97.79Y-114.935
X106.68Y-57.785
X106.68Y-76.835
X106.68Y-95.885
X106.68Y-114.935
X106.68Y-133.985
X116.84Y-57.785
X116.84Y-76.835
X116.84Y-95.885
X116.84Y-114.935
X116.84Y-133.985
X125.73Y-57.785
X125.73Y-86.36
X125.73Y-124.46
X135.89Y-57.785
X135.89Y-86.36
X135.89Y-124.46
T2
X1.625Y-1.625
X83.185Y-67.31
X83.185Y-124.46
X140.335Y-105.41
T3
X71.247Y-127.0
X95.123Y-127.0
X123.825Y-74.422
X123.825Y-98.298
X123.825Y-112.522
X123.825Y-136.398
T4
X69.85Y-55.245
X69.85Y-74.295
X69.85Y-93.345
X69.85Y-112.395
X76.2Y-52.705
X76.2Y-71.755
X76.2Y-90.805
X76.2Y-109.855
X79.375Y-131.445
X85.725Y-128.905
X88.9Y-55.245
X88.9Y-74.295
X88.9Y-93.345
X88.9Y-112.395
X95.25Y-52.705
X95.25Y-71.755
X95.25Y-90.805
X95.25Y-109.855
X107.95Y-55.245
X107.95Y-74.295
X107.95Y-93.345
X107.95Y-112.395
X107.95Y-131.445
X114.3Y-52.705
X114.3Y-71.755
X114.3Y-90.805
X114.3Y-109.855
X114.3Y-128.905
X127.0Y-55.245
X127.0Y-83.82
X127.0Y-121.92
X133.35Y-52.705
X133.35Y-81.28
X133.35Y-119.38
T5
X71.247Y-142.21
X95.123Y-142.21
X139.035Y-74.422
X139.035Y-98.298
X139.035Y-112.522
X139.035Y-136.398
T6
X73.66Y-57.785
X73.66Y-76.835
X73.66Y-95.885
X73.66Y-114.935
X83.185Y-133.985
X92.71Y-57.785
X92.71Y-76.835
X92.71Y-95.885
X92.71Y-114.935
X111.76Y-57.785
X111.76Y-76.835
X111.76Y-95.885
X111.76Y-114.935
X111.76Y-133.985
X130.81Y-57.785
X130.81Y-86.36
X130.81Y-124.46
M30
